<mxfile host="app.diagrams.net" modified="2024-01-15T11:30:00.000Z" agent="5.0" etag="example" version="22.0.0">
  <diagram name="WHILE Döngüsü Örnek" id="flowchart">
    <mxGraphModel dx="1422" dy="794" grid="1" gridSize="10" guides="1" tooltips="1" connect="1" arrows="1" fold="1" page="1" pageScale="1" pageWidth="827" pageHeight="1169" math="0" shadow="0">
      <root>
        <mxCell id="0"/>
        <mxCell id="1" parent="0"/>
        
        <!-- BAŞLA -->
        <mxCell id="start" value="BAŞLA" style="ellipse;whiteSpace=wrap;html=1;fillColor=#d5e8d4;strokeColor=#82b366;" vertex="1" parent="1">
          <mxGeometry x="340" y="40" width="120" height="60" as="geometry"/>
        </mxCell>
        
        <!-- sayaç = 0 -->
        <mxCell id="init" value="sayaç ← 0" style="rounded=0;whiteSpace=wrap;html=1;fillColor=#fff2cc;strokeColor=#d6b656;" vertex="1" parent="1">
          <mxGeometry x="340" y="140" width="120" height="60" as="geometry"/>
        </mxCell>
        
        <!-- sayaç < 5 kontrol -->
        <mxCell id="condition" value="sayaç < 5 ?" style="rhombus;whiteSpace=wrap;html=1;fillColor=#e1d5e7;strokeColor=#9673a6;" vertex="1" parent="1">
          <mxGeometry x="340" y="240" width="120" height="80" as="geometry"/>
        </mxCell>
        
        <!-- Kullanıcıdan veri al -->
        <mxCell id="input" value="kullanıcıdan&#xa;veri al" style="shape=parallelogram;perimeter=parallelogramPerimeter;whiteSpace=wrap;html=1;fixedSize=1;fillColor=#dae8fc;strokeColor=#6c8ebf;" vertex="1" parent="1">
          <mxGeometry x="340" y="380" width="120" height="60" as="geometry"/>
        </mxCell>
        
        <!-- İşlem yap -->
        <mxCell id="process" value="veriyi işle" style="rounded=0;whiteSpace=wrap;html=1;fillColor=#fff2cc;strokeColor=#d6b656;" vertex="1" parent="1">
          <mxGeometry x="340" y="480" width="120" height="60" as="geometry"/>
        </mxCell>
        
        <!-- sayaç++ -->
        <mxCell id="increment" value="sayaç ← sayaç + 1" style="rounded=0;whiteSpace=wrap;html=1;fillColor=#fff2cc;strokeColor=#d6b656;" vertex="1" parent="1">
          <mxGeometry x="320" y="580" width="160" height="60" as="geometry"/>
        </mxCell>
        
        <!-- Sonuç göster -->
        <mxCell id="output" value="Sonuç göster" style="shape=parallelogram;perimeter=parallelogramPerimeter;whiteSpace=wrap;html=1;fixedSize=1;fillColor=#ffe6cc;strokeColor=#d79b00;" vertex="1" parent="1">
          <mxGeometry x="560" y="250" width="140" height="60" as="geometry"/>
        </mxCell>
        
        <!-- BITIR -->
        <mxCell id="end" value="BITIR" style="ellipse;whiteSpace=wrap;html=1;fillColor=#f8cecc;strokeColor=#b85450;" vertex="1" parent="1">
          <mxGeometry x="570" y="360" width="120" height="60" as="geometry"/>
        </mxCell>
        
        <!-- Connections -->
        <mxCell id="edge1" edge="1" parent="1" source="start" target="init">
          <mxGeometry relative="1" as="geometry"/>
        </mxCell>
        <mxCell id="edge2" edge="1" parent="1" source="init" target="condition">
          <mxGeometry relative="1" as="geometry"/>
        </mxCell>
        <mxCell id="edge3" edge="1" parent="1" source="condition" target="input">
          <mxGeometry relative="1" as="geometry"/>
          <mxCell id="labelYes" value="EVET" style="edgeLabel;html=1;align=center;verticalAlign=middle;" vertex="1" connectable="0" parent="edge3">
            <mxGeometry relative="1" as="geometry"/>
          </mxCell>
        </mxCell>
        <mxCell id="edge4" edge="1" parent="1" source="condition" target="output">
          <mxGeometry relative="1" as="geometry"/>
          <mxCell id="labelNo" value="HAYIR" style="edgeLabel;html=1;align=center;verticalAlign=middle;" vertex="1" connectable="0" parent="edge4">
            <mxGeometry relative="1" as="geometry"/>
          </mxCell>
        </mxCell>
        <mxCell id="edge5" edge="1" parent="1" source="input" target="process">
          <mxGeometry relative="1" as="geometry"/>
        </mxCell>
        <mxCell id="edge6" edge="1" parent="1" source="process" target="increment">
          <mxGeometry relative="1" as="geometry"/>
        </mxCell>
        <mxCell id="edge7" edge="1" parent="1" source="increment" target="condition">
          <mxGeometry relative="1" as="geometry">
            <Array as="points">
              <mxPoint x="260" y="610"/>
              <mxPoint x="260" y="280"/>
            </Array>
          </mxGeometry>
        </mxCell>
        <mxCell id="edge8" edge="1" parent="1" source="output" target="end">
          <mxGeometry relative="1" as="geometry"/>
        </mxCell>
        
      </root>
    </mxGraphModel>
  </diagram>
</mxfile>